#!OML:ASF H:\LiuWeirdWalks\Patient Classification 1\Patient 1\Session 1\male.ASF
:FULLY-SPECIFIED
:DEGREES
601
root 1.68382 19.8368 22.7282 -2.92296 5.28719 -7.18374
lowerback 16.2016 -3.72572 -8.35379
upperback 1.33821 -5.90465 7.71609
thorax -5.9064 -2.64718 14.6448
lowerneck -17.9306 5.51806 11.6083
upperneck 17.8925 7.11665 -12.2302
head 9.47995 2.84233 -5.21674
rclavicle 1.2921e-014 2.06736e-014
rhumerus -57.18 22.2407 -79.4602
rradius 50.4101
rwrist -7.34161
rhand -18.2685 -4.05365
rfingers 7.12502
rthumb 8.01118 -33.8818
lclavicle 1.2921e-014 2.06736e-014
lhumerus -40.532 3.696 79.9214
lradius 61.0763
lwrist 4.81169
lhand -21.0524 -15.3457
lfingers 7.12502
lthumb 5.32379 14.5674
rfemur -43.1494 -7.09621 17.7328
rtibia 76.4622
rfoot 29.3312 -8.09108
rtoes 21.7104
lfemur -4.82595 -1.45767 -17.5401
ltibia 23.9424
lfoot 16.2875 -17.4261
ltoes -14.2519
602
root 1.69045 19.7779 22.9848 -2.94275 5.72807 -7.2094
lowerback 16.1822 -3.71495 -8.45517
upperback 1.22932 -5.90495 7.74494
thorax -6.00183 -2.63051 14.7499
lowerneck -17.9272 5.38056 11.4585
upperneck 18.013 6.95717 -12.1425
head 9.48985 2.76622 -5.18652
rclavicle -6.19214e-014 2.14687e-014
rhumerus -57.5119 21.8935 -79.9341
rradius 49.4786
rwrist -7.1941
rhand -18.3404 -3.9318
rfingers 7.12502
rthumb 7.94184 -33.7626
lclavicle -6.19214e-014 2.14687e-014
lhumerus -41.6938 3.96985 80.1448
lradius 60.756
lwrist 4.91486
lhand -21.1742 -15.4333
lfingers 7.12502
lthumb 5.20617 14.4827
rfemur -41.545 -7.19037 17.8175
rtibia 77.1175
rfoot 29.7576 -8.08643
rtoes 21.6746
lfemur -6.2552 -1.73088 -17.4786
ltibia 22.6595
lfoot 14.912 -17.0994
ltoes -14.5131
603
root 1.69548 19.7106 23.2429 -3.00991 6.13912 -7.4441
lowerback 16.1626 -3.74105 -8.49027
upperback 1.17983 -5.93722 7.8699
thorax -6.01748 -2.64128 14.9296
lowerneck -17.9627 5.3159 11.3825
upperneck 18.1196 6.89034 -12.1263
head 9.52077 2.72972 -5.18033
rclavicle -8.34896e-014 2.3059e-014
rhumerus -57.67 21.7495 -80.4209
rradius 48.4981
rwrist -7.09188
rhand -18.391 -3.82924
rfingers 7.12502
rthumb 7.89298 -33.6619
lclavicle -8.34896e-014 2.3059e-014
lhumerus -42.7956 4.46243 80.2766
lradius 60.3791
lwrist 5.03297
lhand -21.2559 -15.506
lfingers 7.12502
lthumb 5.12724 14.412
rfemur -39.8333 -7.23366 18.1874
rtibia 77.625
rfoot 30.1609 -8.08689
rtoes 21.659
lfemur -7.75465 -1.97945 -17.1781
ltibia 21.5844
lfoot 13.439 -16.3358
ltoes -14.5837
604
root 1.69949 19.6349 23.5023 -3.13738 6.50327 -7.89068
lowerback 16.1098 -3.79155 -8.3462
upperback 1.22498 -5.96523 8.03995
thorax -5.92509 -2.66884 15.0391
lowerneck -18.1873 5.31256 11.3818
upperneck 18.2649 6.87639 -12.1271
head 9.61088 2.71491 -5.18507
rclavicle 1.03368e-013 -4.53229e-014
rhumerus -57.628 21.6507 -80.9152
rradius 47.506
rwrist -7.01899
rhand -18.364 -3.79025
rfingers 7.12502
rthumb 7.91906 -33.6219
lclavicle 1.03368e-013 -4.53229e-014
lhumerus -43.7556 5.05551 80.2949
lradius 59.9567
lwrist 5.2397
lhand -21.3163 -15.5722
lfingers 7.12502
lthumb 5.06897 14.3471
rfemur -38.0101 -7.22379 18.8479
rtibia 77.9827
rfoot 30.5427 -8.10443
rtoes 21.7074
lfemur -9.31654 -2.1627 -16.6381
ltibia 20.7606
lfoot 11.9919 -15.229
ltoes -14.5088
605
root 1.70434 19.5498 23.7623 -3.31213 6.82447 -8.47133
lowerback 16.0609 -3.81604 -8.01559
upperback 1.28484 -5.92332 8.22384
thorax -5.85853 -2.6639 15.039
lowerneck -18.4282 5.27197 11.3282
upperneck 18.4272 6.81439 -12.0819
head 9.69976 2.67829 -5.17182
rclavicle 6.57977e-014 -1.39944e-013
rhumerus -57.5621 21.4585 -81.3809
rradius 46.5059
rwrist -6.99227
rhand -18.2831 -3.77476
rfingers 7.12502
rthumb 7.99706 -33.6035
lclavicle 6.57977e-014 -1.39944e-013
lhumerus -44.6612 5.59321 80.2727
lradius 59.4874
lwrist 5.44367
lhand -21.304 -15.6367
lfingers 7.12502
lthumb 5.08079 14.2824
rfemur -36.1033 -7.20385 19.7
rtibia 78.213
rfoot 30.8944 -8.12486
rtoes 21.7313
lfemur -10.9222 -2.28412 -15.9566
ltibia 20.178
lfoot 10.6182 -13.8729
ltoes -14.2818
606
root 1.70963 19.4548 24.0234 -3.50966 7.08165 -9.13437
lowerback 15.9098 -3.67197 -7.21816
upperback 1.2425 -5.5691 8.29322
thorax -6.00316 -2.48961 14.56
lowerneck -18.4165 4.89777 10.8927
upperneck 18.5859 6.34304 -11.7117
head 9.65996 2.46718 -5.03775
rclavicle -9.41245e-014 -4.29375e-014
rhumerus -57.8478 20.4819 -81.7092
rradius 45.5685
rwrist -6.91778
rhand -18.1509 -3.76324
rfingers 7.12502
rthumb 8.12465 -33.587
lclavicle -9.41245e-014 -4.29375e-014
lhumerus -45.579 5.39199 80.3722
lradius 58.954
lwrist 5.65395
lhand -21.2122 -15.6642
lfingers 7.12502
lthumb 5.16945 14.2528
rfemur -34.1616 -7.16515 20.6903
rtibia 78.3529
rfoot 31.2614 -8.16138
rtoes 21.7726
lfemur -12.5347 -2.37878 -15.1792
ltibia 19.7611
lfoot 9.43674 -12.4053
ltoes -13.8939
607
root 1.71498 19.3483 24.2847 -3.68254 7.27296 -9.7201
lowerback 15.72 -3.46856 -6.43285
upperback 1.17604 -5.14132 8.3109
thorax -6.16817 -2.2775 14.0111
lowerneck -18.3769 4.47259 10.3913
upperneck 18.7606 5.80706 -11.2729
head 9.61251 2.22929 -4.8768
rclavicle 8.64713e-015 3.26007e-014
rhumerus -58.1549 19.3526 -81.992
rradius 44.6393
rwrist -6.88211
rhand -17.9966 -3.73906
rfingers 7.12502
rthumb 8.27364 -33.557
lclavicle 8.64713e-015 3.26007e-014
lhumerus -46.4685 5.08659 80.4164
lradius 58.3754
lwrist 5.81105
lhand -21.0664 -15.7159
lfingers 7.12502
lthumb 5.31027 14.1976
rfemur -32.2621 -7.12264 21.6381
rtibia 78.4625
rfoot 31.6507 -8.20647
rtoes 21.8458
lfemur -14.1134 -2.52374 -14.4645
ltibia 19.4199
lfoot 8.51267 -11.0506
ltoes -13.3127
608
root 1.72263 19.2298 24.5459 -3.79686 7.46358 -10.0784
lowerback 15.4464 -3.27054 -5.90849
upperback 1.11027 -4.77327 8.27302
thorax -6.24058 -2.09823 13.5554
lowerneck -18.2124 4.08632 9.96491
upperneck 18.8269 5.3186 -10.887
head 9.51964 2.01722 -4.73733
rclavicle 2.94698e-014 5.88403e-014
rhumerus -58.3948 18.297 -82.2622
rradius 43.7329
rwrist -6.90252
rhand -17.8248 -3.71351
rfingers 7.12502
rthumb 8.4394 -33.5249
lclavicle 2.94698e-014 5.88403e-014
lhumerus -47.3452 4.92251 80.3356
lradius 57.7873
lwrist 5.86376
lhand -20.8693 -15.7481
lfingers 7.12502
lthumb 5.50058 14.1605
rfemur -30.4381 -7.17354 22.3399
rtibia 78.6189
rfoot 32.017 -8.24685
rtoes 21.9114
lfemur -15.7006 -2.81469 -13.9773
ltibia 19.2528
lfoot 7.91343 -10.1177
ltoes -12.5642
609
root 1.73021 19.0988 24.8069 -3.84657 7.61487 -10.1827
lowerback 15.107 -3.07509 -5.71642
upperback 1.08279 -4.47443 8.17775
thorax -6.18682 -1.95704 13.237
lowerneck -18.1046 3.79475 9.66388
upperneck 18.8544 4.93469 -10.5708
head 9.446 1.85362 -4.6275
rclavicle 4.42296e-014 1.03368e-014
rhumerus -58.4829 17.3857 -82.5561
rradius 42.8427
rwrist -7.01754
rhand -17.6339 -3.70485
rfingers 7.12502
rthumb 8.6236 -33.5087
lclavicle 4.42296e-014 1.03368e-014
lhumerus -48.1419 4.95781 80.0995
lradius 57.1875
lwrist 5.9066
lhand -20.6709 -15.7852
lfingers 7.12502
lthumb 5.69211 14.1184
rfemur -28.7192 -7.25584 22.7785
rtibia 78.8359
rfoot 32.3961 -8.29511
rtoes 21.9183
lfemur -17.1731 -3.26608 -13.7133
ltibia 19.0526
lfoot 7.80533 -9.7936
ltoes -11.7155
610
root 1.7356 18.9348 25.0686 -3.8726 7.73085 -10.0929
lowerback 14.7509 -2.8982 -5.82117
upperback 1.11986 -4.25661 8.05006
thorax -6.00892 -1.86043 13.0706
lowerneck -18.1492 3.61917 9.50525
upperneck 18.8653 4.67835 -10.3413
head 9.4179 1.74629 -4.55423
rclavicle 3.45388e-014 -3.57812e-014
rhumerus -58.3765 16.6703 -82.8843
rradius 41.966
rwrist -7.21465
rhand -17.4475 -3.70987
rfingers 7.12502
rthumb 8.80355 -33.5062
lclavicle 3.45388e-014 -3.57812e-014
lhumerus -48.8485 5.23824 79.7029
lradius 56.6064
lwrist 5.9384
lhand -20.493 -15.7844
lfingers 7.12502
lthumb 5.86385 14.1145
rfemur -27.1378 -7.3685 23.0111
rtibia 79.2194
rfoot 32.76 -8.38676
rtoes 21.8614
lfemur -18.5097 -3.8161 -13.6062
ltibia 18.8311
lfoot 8.20273 -10.1529
ltoes -10.766
611
root 1.74189 18.775 25.3289 -3.90991 7.80359 -9.85769
lowerback 14.4021 -2.80779 -6.35367
upperback 1.26062 -4.22515 7.97404
thorax -5.63659 -1.86491 13.2524
lowerneck -18.2928 3.66326 9.60252
upperneck 18.8057 4.69409 -10.3343
head 9.42775 1.75803 -4.56438
rclavicle 3.4837e-014 7.15625e-015
rhumerus -58.0004 16.4797 -83.2958
rradius 41.1108
rwrist -7.48644
rhand -17.2688 -3.76289
rfingers 7.12502
rthumb 8.97595 -33.5519
lclavicle 3.4837e-014 7.15625e-015
lhumerus -49.5136 6.07127 79.0997
lradius 56.0599
lwrist 5.95812
lhand -20.3807 -15.817
lfingers 7.12502
lthumb 5.97231 14.0788
rfemur -25.5238 -7.49941 23.0878
rtibia 79.5969
rfoot 33.1641 -8.53108
rtoes 21.801
lfemur -19.6212 -4.40762 -13.6181
ltibia 18.5809
lfoot 9.08446 -11.1009
ltoes -9.71217
612
root 1.74869 18.601 25.5889 -3.97972 7.83795 -9.52559
lowerback 14.0642 -2.70784 -6.9812
upperback 1.42902 -4.19293 7.8695
thorax -5.23624 -1.87245 13.4601
lowerneck -18.4544 3.71331 9.66515
upperneck 18.7494 4.72085 -10.3032
head 9.44177 1.77442 -4.55846
rclavicle 1.27222e-014 -3.49861e-014
rhumerus -57.5788 16.3563 -83.722
rradius 40.2886
rwrist -7.76939
rhand -17.1076 -3.85726
rfingers 7.12502
rthumb 9.13149 -33.6396
lclavicle 1.27222e-014 -3.49861e-014
lhumerus -50.1589 6.93647 78.4371
lradius 55.5357
lwrist 6.04149
lhand -20.3759 -15.8724
lfingers 7.12502
lthumb 5.97688 14.0233
rfemur -23.9253 -7.65001 23.0447
rtibia 80.0502
rfoot 33.6045 -8.71492
rtoes 21.7909
lfemur -20.5509 -4.96792 -13.7222
ltibia 18.3753
lfoot 10.3767 -12.4455
ltoes -8.51956
613
root 1.75662 18.4119 25.8487 -4.10599 7.82422 -9.16416
lowerback 13.7839 -2.62939 -7.70446
upperback 1.63369 -4.19964 7.78722
thorax -4.80851 -1.90434 13.7646
lowerneck -18.678 3.83134 9.77816
upperneck 18.7026 4.83893 -10.3412
head 9.48423 1.82776 -4.57313
rclavicle 3.67255e-014 8.34896e-015
rhumerus -57.0825 16.481 -84.1965
rradius 39.4899
rwrist -8.06819
rhand -17.0015 -3.97977
rfingers 7.12502
rthumb 9.23386 -33.7576
lclavicle 3.67255e-014 8.34896e-015
lhumerus -50.826 7.97712 77.6928
lradius 55.0545
lwrist 6.14919
lhand -20.4567 -16.001
lfingers 7.12502
lthumb 5.89893 13.8969
rfemur -22.3231 -7.82041 22.9432
rtibia 80.5479
rfoot 34.0945 -8.91134
rtoes 21.8362
lfemur -21.2981 -5.46543 -13.8625
ltibia 18.2257
lfoot 11.8771 -13.8024
ltoes -7.04128
